<svg width="96" height="96" viewBox="0 0 96 96" fill="none" xmlns="http://www.w3.org/2000/svg">
  <rect width="96" height="96" rx="26" fill="#0F172A"/>
  <path d="M48 18C61.255 18 72 28.745 72 42C72 55.255 61.255 66 48 66C34.745 66 24 55.255 24 42C24 28.745 34.745 18 48 18Z" fill="url(#paint0_linear)"/>
  <path d="M48 30C54.627 30 60 35.373 60 42C60 48.627 54.627 54 48 54C41.373 54 36 48.627 36 42C36 35.373 41.373 30 48 30Z" fill="#F8FAFC"/>
  <path d="M28 74C34.2 65.5 40.8667 61.25 48 61.25C55.1333 61.25 61.8 65.5 68 74" stroke="#F8FAFC" stroke-width="7" stroke-linecap="round"/>
  <path d="M21 28L14 24L21 20L25 13L29 20L36 24L29 28L25 35L21 28Z" fill="#93C5FD"/>
  <path d="M72 24L68 22L72 20L74 16L76 20L80 22L76 24L74 28L72 24Z" fill="#22D3EE"/>
  <defs>
    <linearGradient id="paint0_linear" x1="24" y1="18" x2="72" y2="66" gradientUnits="userSpaceOnUse">
      <stop stop-color="#60A5FA"/>
      <stop offset="1" stop-color="#14B8A6"/>
    </linearGradient>
  </defs>
</svg>
